<svg width="39" height="38" viewBox="0 0 49 48" fill="none" xmlns="http://www.w3.org/2000/svg">
<g clip-path="url(#clip0_2395_97)">
<path d="M24.2422 46C36.3928 46 46.2422 36.1506 46.2422 24C46.2422 11.8494 36.3928 2 24.2422 2C12.0916 2 2.24219 11.8494 2.24219 24C2.24219 36.1506 12.0916 46 24.2422 46Z" fill="#CEE0FA" stroke="#CEE0FA" stroke-width="4" stroke-linecap="round" stroke-linejoin="round"/>
<path d="M23.9642 10L14.6882 23.494C14.1282 24.306 13.8482 24.712 13.8682 25.05C13.8751 25.1952 13.9135 25.3372 13.9809 25.466C14.0482 25.5949 14.1429 25.7075 14.2582 25.796C14.5282 26 15.0182 26 16.0062 26H23.9642V36L33.2402 22.506C33.8002 21.694 34.0802 21.288 34.0602 20.95C34.0533 20.8048 34.0149 20.6628 33.9475 20.534C33.8802 20.4051 33.7855 20.2925 33.6702 20.204C33.4002 20 32.9102 20 31.9222 20H23.9642V10Z" fill="#0B63E5" stroke="#0B63E5" stroke-width="2" stroke-linecap="round" stroke-linejoin="round"/>
</g>
<defs>
<clipPath id="clip0_2395_97">
<rect width="48" height="48" fill="white" transform="translate(0.242188)"/>
</clipPath>
</defs>
</svg>
